<?xml version="1.0" encoding="utf-8"?>
<!-- Generator: Adobe Illustrator 25.4.1, SVG Export Plug-In . SVG Version: 6.00 Build 0)  -->
<svg version="1.1" id="Warstwa_1" xmlns="http://www.w3.org/2000/svg" xmlns:xlink="http://www.w3.org/1999/xlink" x="0px" y="0px"
	 viewBox="0 0 100 100" style="enable-background:new 0 0 100 100;" xml:space="preserve">
<style type="text/css">
	.st0{fill:none;stroke:#000000;stroke-width:6;stroke-miterlimit:10;}
</style>
<path class="st0" d="M52.2,21.5C57,8,76,0,88,11c7.7,7,4.9,23,2,31c-1.6,4.4-4.3,9.6-22.5,27.8c-7.9,8-14.7,14.4-19.6,18.9"/>
<path class="st0" d="M54.1,20.2C47.6,10,36,4,24.3,6c-2.7,1-5.3,2.5-7.4,4.5c-2.9,2.8-3.9,6.3-4.2,7.5c-1.8,6.4,0.6,12.7,1.7,15.3
	c6.5,16.2,16.2,29.6,17,30.8c5,6.8,11.6,15.6,20,25.4"/>
<path class="st0" d="M66.8,70.5"/>
</svg>
