<?xml version="1.0" encoding="utf-8"?>
<!-- Generator: Adobe Illustrator 25.4.1, SVG Export Plug-In . SVG Version: 6.00 Build 0)  -->
<svg version="1.1" id="Warstwa_1" xmlns="http://www.w3.org/2000/svg" xmlns:xlink="http://www.w3.org/1999/xlink" x="0px" y="0px"
	 viewBox="0 0 100 100" style="enable-background:new 0 0 100 100;" xml:space="preserve">
<style type="text/css">
	.st0{stroke:#000000;stroke-miterlimit:10;}
</style>
<path class="st0" d="M86.9,32.5H12.2c-0.5-1.1-1.2-3.1-1.4-5.7c-0.2-3.8,0.9-6.7,1.4-7.9c24.9,0,49.8,0,74.6,0
	c0.5,1.1,1.1,2.8,1.3,4.9c0.1,0.6,0.2,1.8,0,3.3C88,29.4,87.4,31.2,86.9,32.5z"/>
<path class="st0" d="M86.9,56.7H12.2c-0.5-1.1-1.2-3.1-1.4-5.7c-0.2-3.8,0.9-6.7,1.4-7.9c24.9,0,49.8,0,74.6,0
	c0.5,1.1,1.1,2.8,1.3,4.9c0.1,0.6,0.2,1.8,0,3.3C88,53.6,87.4,55.4,86.9,56.7z"/>
<path class="st0" d="M86.2,80.4H11.6c-0.5-1.1-1.2-3.1-1.4-5.7c-0.2-3.8,0.9-6.7,1.4-7.9c24.9,0,49.8,0,74.6,0
	c0.5,1.1,1.1,2.8,1.3,4.9c0.1,0.6,0.2,1.8,0,3.3C87.4,77.3,86.8,79.1,86.2,80.4z"/>
</svg>
